<?xml version="1.0" standalone="no"?>
<!DOCTYPE svg PUBLIC "-//W3C//DTD SVG 20010904//EN"
 "http://www.w3.org/TR/2001/REC-SVG-20010904/DTD/svg10.dtd">

<svg version="1.0" xmlns="http://www.w3.org/2000/svg"
 width="500.000000pt" height="500.000000pt" viewBox="0 0 500.000000 500.000000"
 preserveAspectRatio="xMidYMid meet">

<g transform="translate(0.000000,500.000000) scale(0.100000,-0.100000)"
fill="#000000" stroke="none">
<path d="M3505 3511 c-243 -32 -473 -146 -669 -332 -115 -109 -203 -228 -275
-374 -54 -110 -67 -144 -101 -272 l-11 -43 -351 -2 -352 -3 -18 -125 c-29
-202 -35 -250 -30 -255 3 -3 61 -5 128 -5 68 0 125 -4 128 -9 9 -14 -67 -103
-131 -152 -158 -125 -349 -175 -507 -134 -173 45 -300 163 -357 332 -19 55
-23 90 -24 183 0 143 14 208 76 336 37 78 64 118 121 179 250 268 597 308 814
94 l61 -61 212 106 c116 58 211 110 211 115 0 19 -119 169 -171 214 -104 92
-246 162 -389 192 -93 20 -293 20 -388 0 -234 -49 -461 -173 -632 -345 -247
-249 -370 -541 -370 -879 0 -249 57 -424 195 -607 215 -282 599 -391 990 -281
292 83 583 322 740 610 20 37 38 67 40 67 2 0 17 -44 34 -97 72 -230 235 -426
439 -528 433 -217 994 -51 1340 397 173 225 263 486 263 763 0 432 -269 798
-661 896 -86 21 -266 31 -355 20z m166 -455 c90 -20 162 -58 231 -124 112
-107 163 -233 162 -407 0 -215 -79 -393 -242 -547 -245 -231 -573 -250 -777
-44 -108 109 -155 231 -155 403 0 124 24 225 80 331 107 206 302 357 505 391
76 13 123 12 196 -3z"/>
<path d="M3110 2513 c0 -5 7 -64 15 -133 8 -69 15 -128 15 -132 0 -5 15 -8 34
-8 32 0 35 3 56 58 13 31 27 61 31 66 4 4 10 -22 14 -58 l7 -67 35 3 35 3 53
135 c48 125 51 135 33 138 -35 6 -44 -5 -73 -85 l-29 -78 -9 50 c-4 28 -10 65
-13 83 -4 29 -8 33 -32 30 -22 -3 -30 -14 -58 -83 -36 -89 -33 -91 -49 38 -6
44 -8 47 -36 47 -16 0 -29 -3 -29 -7z"/>
<path d="M3495 2498 c-5 -27 -35 -234 -35 -248 0 -6 39 -10 90 -10 l90 0 0 30
c0 30 -1 30 -55 30 -54 0 -55 0 -55 30 0 29 1 30 50 30 49 0 50 1 50 30 0 29
-2 30 -44 30 -39 0 -44 2 -39 20 5 17 14 20 64 20 59 0 59 0 59 30 l0 30 -85
0 c-80 0 -85 -1 -90 -22z"/>
<path d="M3717 2488 c-4 -18 -11 -71 -17 -118 -6 -47 -13 -95 -15 -107 -5 -22
-3 -23 69 -23 65 0 78 3 104 25 35 29 46 70 28 106 -11 21 -11 29 1 44 20 28
16 59 -10 83 -19 18 -35 22 -89 22 l-66 0 -5 -32z m118 -43 c0 -15 -8 -21 -32
-23 -30 -3 -33 -1 -33 23 0 24 3 26 33 23 24 -2 32 -8 32 -23z m3 -108 c5 -28
-17 -47 -54 -47 -35 0 -43 15 -28 55 9 23 78 17 82 -8z"/>
<path d="M1877 2703 c-2 -4 -8 -35 -11 -68 -4 -33 -10 -70 -13 -82 -4 -18 -1
-23 16 -23 14 0 21 6 21 19 0 34 12 51 35 51 13 0 26 7 29 16 9 23 8 24 -19
24 -38 0 -32 28 8 32 52 5 42 32 -15 36 -25 2 -48 -1 -51 -5z"/>
<path d="M1995 2620 c-41 -83 -44 -90 -25 -90 11 0 23 7 26 15 4 9 19 15 40
15 22 0 37 -6 40 -15 4 -8 14 -15 24 -15 17 0 17 3 0 79 -9 43 -20 84 -24 90
-17 27 -39 6 -81 -79z m65 0 c0 -11 -7 -20 -15 -20 -17 0 -18 2 -9 24 9 23 24
20 24 -4z"/>
<path d="M2183 2700 c-54 -22 -49 -83 9 -98 17 -4 33 -13 35 -19 5 -13 -30
-23 -48 -13 -8 4 -22 4 -33 1 -17 -7 -17 -8 -2 -24 40 -40 138 1 122 51 -7 19
-45 42 -72 42 -35 0 -4 25 32 26 59 1 61 3 35 24 -25 22 -43 24 -78 10z"/>
<path d="M2307 2703 c-14 -14 -6 -33 14 -33 20 0 21 -3 14 -70 -6 -59 -5 -70
8 -70 18 0 23 14 32 88 6 46 10 52 30 52 22 0 40 22 28 34 -9 8 -118 8 -126
-1z"/>
</g>
</svg>
